<svg width="228" height="34" viewBox="0 0 228 34" fill="none" xmlns="http://www.w3.org/2000/svg">
<path d="M40.206 0.178881C37.7193 0.71952 35.849 1.64484 33.7488 3.37073C32.6204 4.29605 30.8232 6.46901 30.8232 6.90568C30.8232 7.02004 31.8681 7.77902 32.0248 7.77902C32.0457 7.77902 32.2965 7.47751 32.5786 7.10322C34.7101 4.28566 37.1969 2.60136 40.2896 1.89437C41.5017 1.61365 43.9571 1.63445 45.0542 1.93596C46.6946 2.38302 48.3873 3.25636 49.4739 4.22328C50.686 5.30455 51.7726 6.99925 52.295 8.61077C52.713 9.87919 52.7757 11.7506 52.4622 13.123C52.0756 14.7553 51.0725 16.2629 49.5993 17.3858C48.9828 17.8536 48.2305 18.2799 48.032 18.2799C48.0111 18.2799 48.4082 17.864 48.9097 17.3546C49.662 16.5956 49.9023 16.2733 50.2994 15.4623C50.9681 14.0795 51.1979 13.123 51.1979 11.6259C51.1979 8.27807 49.5053 5.62686 46.4647 4.19208C45.0855 3.53708 44.3123 3.37073 42.6824 3.38113C41.0628 3.39152 40.1852 3.58906 38.691 4.29605C36.6431 5.26297 34.8668 6.86409 33.3518 9.13061C33.0279 9.61927 32.7458 10.0351 32.7353 10.0455C32.7249 10.0663 32.3383 9.75443 31.8681 9.34895C30.7292 8.37164 29.7784 7.75822 28.2633 7.04084C24.3033 5.159 20.0194 5.46051 16.2893 7.91417C14.7325 8.93307 12.8726 10.8253 11.4203 12.8839C11.1173 13.3102 10.4277 14.2875 9.88434 15.0568C9.33056 15.8262 8.59916 16.8763 8.23346 17.3858C7.26175 18.7581 6.14375 19.8186 5.14069 20.3281C4.68095 20.5672 4.03314 20.8167 3.69879 20.8791C3.11367 21.0039 1.91209 20.9727 0.919473 20.8167C0.407494 20.7336 0 21.1078 0 21.6485C0 22.1163 0.21942 22.2619 1.20158 22.501C2.52855 22.8129 4.51378 22.5426 5.87209 21.8564C6.39452 21.5965 7.65879 20.6816 7.99315 20.3281C8.65141 19.6211 9.39325 18.675 10.3441 17.313C12.0263 14.8905 12.8622 14.1107 14.6698 13.2374C17.1565 12.0313 19.6537 11.8962 22.339 12.8111C24.1675 13.4349 26.6438 15.1088 29.0574 17.3546L29.3604 17.6353L28.9843 18.5086C28.0648 20.64 27.0095 22.3139 25.7452 23.6031C23.8332 25.5577 21.4927 26.1295 19.4657 25.1418C18.4626 24.6428 17.8357 24.019 17.3237 22.9793L16.8744 22.0852V20.8895C16.8849 19.7666 16.9058 19.6419 17.2088 19.0077C17.8148 17.7392 18.891 16.8451 20.1971 16.5436C20.9807 16.3565 22.2554 16.4396 23.06 16.7203C23.7391 16.9595 24.878 17.7392 25.9438 18.6958C26.4035 19.1012 26.811 19.4235 26.8737 19.4027C26.9259 19.382 27.1454 19.0908 27.3543 18.7685L27.72 18.1655L27.208 17.6457C26.1318 16.5436 24.2929 15.2544 22.8719 14.5994C21.2524 13.8508 20.8031 13.7572 19.0164 13.7572C17.7521 13.7572 17.261 13.7988 16.7804 13.9444C14.5966 14.6098 12.6219 16.1277 11.4516 18.0512C10.6366 19.382 10.0411 21.9188 10.1873 23.416C10.5635 27.398 12.5905 30.5482 16.0281 32.5028C17.867 33.5529 19.6433 34 21.9942 34C23.6973 34 24.4914 33.8648 26.0483 33.3554C28.6604 32.4821 30.8023 30.9537 32.7876 28.5208C33.613 27.5019 33.7279 27.2836 33.5399 27.0653C33.3518 26.8469 32.5264 26.3583 32.401 26.4103C32.3487 26.4207 31.9726 26.8677 31.5755 27.3876C30.7919 28.4065 29.3918 29.7165 28.3678 30.4131C24.5019 33.0123 19.5388 33.0539 15.9654 30.517C14.1787 29.2486 12.6219 27.0341 12.1099 25.0587C11.8696 24.0918 11.8382 22.1059 12.0681 21.0351C12.1517 20.6296 12.4338 19.8706 12.695 19.3404C13.0816 18.571 13.3533 18.2071 14.0324 17.5105C14.7847 16.7515 15.7042 16.0965 16.3415 15.8574C16.446 15.8158 16.2057 16.1069 15.7982 16.502C14.6489 17.6145 13.9175 18.8933 13.5204 20.4632C13.2383 21.6173 13.2592 23.4679 13.5727 24.622C14.3563 27.5123 16.655 29.7061 19.6746 30.4443C20.8762 30.7354 22.4435 30.7354 23.8227 30.4547C26.4453 29.9036 29.3709 27.7723 31.1367 25.1314L31.795 24.1333L32.6935 24.8611C37.7297 28.9679 43.8108 29.3942 48.5858 25.984C50.6128 24.5388 52.2532 22.5842 55.555 17.7081C57.6656 14.5994 58.6269 13.7468 60.633 13.227C61.1345 13.1022 61.542 13.071 62.4301 13.123C63.0675 13.1542 63.6735 13.1854 63.7884 13.1958C64.3004 13.1958 64.5616 12.2393 64.1646 11.8442C63.7362 11.4179 61.8764 11.2828 60.4136 11.5843C58.2298 12.021 56.6521 13.2582 54.5937 16.1589C53.2563 18.0408 52.3891 19.0597 51.5845 19.7043C48.9097 21.846 45.7856 22.4594 42.6301 21.4509C40.4464 20.7543 38.691 19.6731 36.3505 17.6041L35.2221 16.606L35.3579 16.2213C35.64 15.4415 36.8834 13.0087 37.4163 12.1977C37.7193 11.7402 38.4193 10.9085 38.9836 10.3574C39.8299 9.52569 40.1643 9.27617 40.927 8.90188C41.836 8.45481 41.8569 8.45481 42.9958 8.45481C44.072 8.45481 44.1869 8.47561 44.8557 8.78751C46.3289 9.48411 47.4469 10.9813 47.635 12.4888C47.9798 15.4623 45.7333 17.8536 42.7868 17.6249C41.3867 17.5209 40.2896 16.9595 38.4611 15.4311L37.5835 14.7034L37.2909 15.0568C37.1237 15.2544 36.9357 15.5663 36.873 15.7638C36.7371 16.1797 36.7894 16.2421 37.876 17.1362C39.6105 18.5502 42.0241 19.8914 43.4138 20.2137C44.49 20.4632 46.517 20.4424 47.5932 20.1617C50.5919 19.382 53.0891 16.9907 53.9772 14.0691C54.2071 13.279 54.2594 12.8839 54.3012 11.5219C54.3534 10.0455 54.3325 9.81681 54.0922 8.81871C53.7578 7.44631 53.1309 6.00115 52.4936 5.09662C51.7935 4.11931 50.4665 2.77811 49.568 2.16469C48.4813 1.41611 46.8095 0.646742 45.608 0.334834C44.1556 -0.0394539 41.5644 -0.112232 40.206 0.178881ZM43.675 5.07582C47.2484 5.63725 49.5366 8.28846 49.5157 11.8338C49.5157 12.8527 49.3381 13.5077 49.3276 12.5512C49.3067 10.8669 48.1365 8.92267 46.517 7.8414C45.6184 7.24877 44.9706 6.99925 43.9362 6.84329C41.5121 6.4794 39.2657 7.47751 37.1446 9.87919C36.0998 11.0748 34.7937 13.2374 34.219 14.7657C34.1145 15.0464 33.9787 15.2648 33.916 15.2648C33.7279 15.2648 32.704 14.1939 32.704 13.9964C32.704 13.778 33.6339 11.8754 34.2504 10.8253C35.7132 8.34045 37.9074 6.31305 39.9448 5.54368C40.6867 5.27336 41.9823 4.99265 42.6301 4.98225C42.8286 4.98225 43.2988 5.02384 43.675 5.07582ZM24.6899 7.61266C25.7766 7.8206 27.3021 8.34045 28.1066 8.78751C29.1933 9.39054 30.6143 10.4198 31.2725 11.0852L31.8785 11.6986L31.6173 12.2809C31.4711 12.6136 31.3143 12.8735 31.2621 12.8735C31.2203 12.8735 31.0427 12.7279 30.865 12.5512C30.1232 11.7714 28.2947 10.5342 27.0095 9.95197C25.6826 9.35934 24.4496 9.08903 22.9868 9.09942C22.2659 9.09942 21.5658 9.14101 21.4195 9.1826C21.2001 9.25538 21.2628 9.28657 21.8375 9.40093C24.4705 9.93117 27.2603 11.4907 30.1336 14.0483L30.6561 14.5058L30.4053 15.1504C30.2695 15.5143 30.0918 15.8262 30.0187 15.8574C29.9247 15.8886 29.6635 15.7222 29.3813 15.4519C28.6708 14.7761 26.602 13.1854 25.6408 12.5928C24.7735 12.0417 23.4884 11.4387 22.5062 11.106C20.4478 10.399 17.4282 10.4198 15.3698 11.1476C15.1191 11.2412 14.8892 11.2932 14.8683 11.2724C14.8161 11.2204 15.8296 10.2639 16.4356 9.80641C18.8701 7.95576 22.0465 7.11361 24.6899 7.61266ZM32.6413 16.398L33.2578 17.0219L33.0174 17.6769C32.8816 18.0408 32.7353 18.3735 32.6831 18.4358C32.6204 18.4982 32.3592 18.3111 31.9726 17.9056L31.3457 17.261L31.5546 16.658C31.8577 15.7742 31.8577 15.7846 31.9412 15.7846C31.9935 15.7846 32.3069 16.0653 32.6413 16.398ZM35.2639 18.8621C35.5564 19.1116 36.0684 19.5483 36.4028 19.8394C37.2178 20.5256 39.1716 21.8044 40.1956 22.3243C42.9227 23.6863 46.1617 23.9462 48.9201 23.0209C49.3067 22.8961 49.6306 22.8233 49.6306 22.8649C49.6306 22.9689 48.4604 24.0294 47.8126 24.518C46.9976 25.1314 45.8274 25.7137 44.5631 26.1503L43.4138 26.535L41.5853 26.5454C39.5687 26.5454 39.1821 26.4726 37.4999 25.8072C35.8072 25.1418 34.3862 24.2581 33.1219 23.0833L32.589 22.5946L32.913 21.9396L33.2264 21.2742L33.8324 21.794C35.5146 23.2392 37.6775 24.4348 39.3597 24.8507C40.0702 25.0171 40.5926 25.0691 41.6479 25.0691C43.1421 25.0691 43.8108 24.9131 42.8077 24.7987C41.5226 24.6428 39.2448 23.6759 37.5103 22.5218C36.4446 21.8252 33.9578 19.8706 33.9578 19.7355C33.9578 19.6627 34.1354 19.1324 34.3653 18.5606C34.5011 18.2279 34.5116 18.2279 35.2639 18.8621ZM31.7114 20.64C31.4293 21.399 30.5516 23.0001 29.8411 24.0502C28.9321 25.3914 27.1558 27.1276 25.9647 27.8242C24.575 28.6352 23.6451 28.9055 22.0256 28.9679C20.7926 29.0095 20.615 28.9887 19.7791 28.7288C18.4522 28.3233 17.7103 27.897 16.864 27.0549C16.0176 26.2231 15.3803 25.0795 15.1086 23.8942C14.9205 23.1248 14.8787 21.243 15.0459 21.347C15.1086 21.3782 15.1504 21.5445 15.1504 21.7005C15.1504 22.1683 15.5997 23.6031 15.9027 24.1125C17.0207 25.9736 19.2149 27.242 21.3464 27.242C24.8885 27.242 27.72 24.9235 30.0605 20.0993L30.6456 18.8829L31.8994 20.1305L31.7114 20.64Z" fill="url(#paint0_linear_419_34427)"/>
<path d="M77.458 26.2629C75.971 26.2629 74.6346 25.9246 73.4487 25.2479C72.2629 24.5524 71.3218 23.6126 70.6253 22.4284C69.9477 21.2442 69.6089 19.9002 69.6089 18.3965C69.6089 16.9115 69.9383 15.577 70.5971 14.3928C71.2747 13.2086 72.1876 12.2781 73.3358 11.6015C74.484 10.906 75.7828 10.5582 77.2321 10.5582C78.4932 10.5582 79.632 10.8308 80.6485 11.3759C81.6649 11.9022 82.4837 12.6071 83.1048 13.4905V5.20117C83.1048 4.86283 83.2083 4.59967 83.4154 4.41171C83.6224 4.20494 83.886 4.10156 84.206 4.10156C84.5259 4.10156 84.7895 4.20494 84.9965 4.41171C85.2036 4.59967 85.3071 4.86283 85.3071 5.20117V18.5093C85.2694 19.9754 84.9024 21.3006 84.206 22.4848C83.5283 23.6502 82.5966 24.5712 81.4108 25.2479C80.2438 25.9246 78.9262 26.2629 77.458 26.2629ZM77.458 24.2893C78.5497 24.2893 79.5191 24.0355 80.3661 23.528C81.232 23.0017 81.9096 22.2968 82.399 21.4134C82.9072 20.5299 83.1613 19.5243 83.1613 18.3965C83.1613 17.2875 82.9072 16.2913 82.399 15.4078C81.9096 14.5056 81.232 13.8007 80.3661 13.2932C79.5191 12.7857 78.5497 12.5319 77.458 12.5319C76.3851 12.5319 75.4157 12.7857 74.5499 13.2932C73.684 13.8007 72.997 14.5056 72.4888 15.4078C71.9806 16.2913 71.7264 17.2875 71.7264 18.3965C71.7264 19.5243 71.9806 20.5299 72.4888 21.4134C72.997 22.2968 73.684 23.0017 74.5499 23.528C75.4157 24.0355 76.3851 24.2893 77.458 24.2893Z" fill="white"/>
<path d="M95.9805 26.2629C94.4558 26.2629 93.1006 25.934 91.9148 25.2761C90.7478 24.5994 89.8254 23.669 89.1478 22.4848C88.489 21.3006 88.1596 19.9472 88.1596 18.4247C88.1596 16.8833 88.4702 15.53 89.0914 14.3646C89.7313 13.1804 90.6066 12.2499 91.7171 11.5733C92.8277 10.8966 94.1076 10.5582 95.557 10.5582C96.9875 10.5582 98.2298 10.8872 99.2839 11.5451C100.357 12.1842 101.185 13.077 101.768 14.2236C102.352 15.3702 102.644 16.6766 102.644 18.1427C102.644 18.4435 102.55 18.6878 102.361 18.8758C102.173 19.045 101.928 19.1296 101.627 19.1296H89.6278V17.3251H101.853L100.639 18.1991C100.658 17.1089 100.46 16.1315 100.046 15.2668C99.6321 14.4022 99.0392 13.7255 98.2675 13.2368C97.5145 12.7481 96.6111 12.5037 95.557 12.5037C94.4841 12.5037 93.5429 12.7575 92.7336 13.265C91.9242 13.7725 91.2936 14.4774 90.8419 15.3796C90.4089 16.2631 90.1925 17.2781 90.1925 18.4247C90.1925 19.5713 90.4372 20.5863 90.9266 21.4698C91.4348 22.3532 92.1218 23.0487 92.9877 23.5562C93.8535 24.0637 94.8511 24.3175 95.9805 24.3175C96.6581 24.3175 97.3357 24.2047 98.0133 23.9791C98.7098 23.7348 99.2651 23.434 99.6792 23.0769C99.8862 22.9077 100.122 22.8231 100.385 22.8231C100.649 22.8043 100.874 22.8701 101.063 23.0205C101.307 23.246 101.43 23.4904 101.43 23.7536C101.449 24.0167 101.345 24.2423 101.119 24.4302C100.498 24.9566 99.7074 25.3983 98.7474 25.7554C97.7875 26.0938 96.8652 26.2629 95.9805 26.2629Z" fill="white"/>
<path d="M111.36 26.2629C109.836 26.2629 108.481 25.934 107.295 25.2761C106.128 24.5994 105.205 23.669 104.528 22.4848C103.869 21.3006 103.54 19.9472 103.54 18.4247C103.54 16.8833 103.85 15.53 104.471 14.3646C105.111 13.1804 105.986 12.2499 107.097 11.5733C108.208 10.8966 109.488 10.5582 110.937 10.5582C112.367 10.5582 113.61 10.8872 114.664 11.5451C115.737 12.1842 116.565 13.077 117.148 14.2236C117.732 15.3702 118.024 16.6766 118.024 18.1427C118.024 18.4435 117.93 18.6878 117.741 18.8758C117.553 19.045 117.308 19.1296 117.007 19.1296H105.008V17.3251H117.233L116.019 18.1991C116.038 17.1089 115.84 16.1315 115.426 15.2668C115.012 14.4022 114.419 13.7255 113.647 13.2368C112.894 12.7481 111.991 12.5037 110.937 12.5037C109.864 12.5037 108.923 12.7575 108.113 13.265C107.304 13.7725 106.674 14.4774 106.222 15.3796C105.789 16.2631 105.572 17.2781 105.572 18.4247C105.572 19.5713 105.817 20.5863 106.306 21.4698C106.815 22.3532 107.502 23.0487 108.368 23.5562C109.233 24.0637 110.231 24.3175 111.36 24.3175C112.038 24.3175 112.716 24.2047 113.393 23.9791C114.09 23.7348 114.645 23.434 115.059 23.0769C115.266 22.9077 115.501 22.8231 115.765 22.8231C116.028 22.8043 116.254 22.8701 116.443 23.0205C116.687 23.246 116.81 23.4904 116.81 23.7536C116.828 24.0167 116.725 24.2423 116.499 24.4302C115.878 24.9566 115.087 25.3983 114.127 25.7554C113.167 26.0938 112.245 26.2629 111.36 26.2629Z" fill="white"/>
<path d="M121.391 32.7196C121.052 32.7196 120.779 32.6162 120.572 32.4095C120.384 32.2215 120.29 31.9583 120.29 31.62V18.3119C120.309 16.8458 120.657 15.53 121.334 14.3646C122.031 13.1804 122.963 12.2499 124.13 11.5733C125.315 10.8966 126.642 10.5582 128.111 10.5582C129.616 10.5582 130.962 10.906 132.148 11.6015C133.334 12.2781 134.266 13.2086 134.943 14.3928C135.64 15.577 135.988 16.9209 135.988 18.4247C135.988 19.9096 135.649 21.2442 134.971 22.4284C134.313 23.6126 133.409 24.5524 132.261 25.2479C131.113 25.9246 129.814 26.2629 128.365 26.2629C127.104 26.2629 125.955 25.9998 124.92 25.4735C123.904 24.9284 123.085 24.2141 122.464 23.3306V31.62C122.464 31.9583 122.36 32.2215 122.153 32.4095C121.965 32.6162 121.711 32.7196 121.391 32.7196ZM128.111 24.2893C129.202 24.2893 130.181 24.0355 131.047 23.528C131.913 23.0205 132.59 22.325 133.08 21.4416C133.588 20.5393 133.842 19.5337 133.842 18.4247C133.842 17.2969 133.588 16.2913 133.08 15.4078C132.59 14.5244 131.913 13.8289 131.047 13.3214C130.181 12.7951 129.202 12.5319 128.111 12.5319C127.038 12.5319 126.068 12.7951 125.202 13.3214C124.337 13.8289 123.659 14.5244 123.17 15.4078C122.68 16.2913 122.435 17.2969 122.435 18.4247C122.435 19.5337 122.68 20.5393 123.17 21.4416C123.659 22.325 124.337 23.0205 125.202 23.528C126.068 24.0355 127.038 24.2893 128.111 24.2893Z" fill="white"/>
<path d="M144.233 26.2629C143.123 26.2629 142.021 26.075 140.93 25.699C139.838 25.3231 138.953 24.7592 138.276 24.0073C138.069 23.7818 137.984 23.528 138.022 23.246C138.059 22.9641 138.2 22.7197 138.445 22.513C138.709 22.325 138.982 22.2498 139.264 22.2874C139.546 22.325 139.782 22.4472 139.97 22.6539C140.422 23.1803 141.014 23.5844 141.749 23.8663C142.501 24.1483 143.33 24.2893 144.233 24.2893C145.626 24.2893 146.633 24.0543 147.254 23.5844C147.875 23.0957 148.195 22.513 148.214 21.8363C148.214 21.1596 147.894 20.6051 147.254 20.1728C146.614 19.7217 145.56 19.3739 144.092 19.1296C142.191 18.8288 140.798 18.3025 139.913 17.5506C139.029 16.7988 138.586 15.9059 138.586 14.8721C138.586 13.9135 138.84 13.1146 139.349 12.4755C139.857 11.8364 140.534 11.3571 141.381 11.0376C142.229 10.718 143.16 10.5582 144.177 10.5582C145.438 10.5582 146.52 10.7744 147.424 11.2067C148.346 11.6391 149.089 12.2218 149.654 12.9548C149.842 13.1992 149.918 13.4529 149.88 13.7161C149.842 13.9793 149.692 14.1954 149.428 14.3646C149.202 14.4962 148.939 14.5432 148.638 14.5056C148.355 14.4492 148.111 14.3082 147.904 14.0826C147.433 13.5375 146.887 13.1428 146.266 12.8984C145.645 12.6353 144.93 12.5037 144.12 12.5037C143.085 12.5037 142.257 12.7199 141.636 13.1522C141.014 13.5657 140.704 14.092 140.704 14.7311C140.704 15.1634 140.817 15.5394 141.043 15.8589C141.287 16.1785 141.692 16.4604 142.257 16.7048C142.84 16.9491 143.65 17.1559 144.685 17.3251C146.097 17.5506 147.207 17.889 148.017 18.3401C148.845 18.7724 149.428 19.2893 149.767 19.8908C150.125 20.4735 150.303 21.1126 150.303 21.8081C150.303 22.6915 150.04 23.4716 149.513 24.1483C149.005 24.8062 148.289 25.3231 147.367 25.699C146.464 26.075 145.419 26.2629 144.233 26.2629Z" fill="white"/>
<path d="M158.691 26.122C157.693 26.122 156.799 25.887 156.009 25.4171C155.237 24.9472 154.625 24.3081 154.173 23.4998C153.722 22.6727 153.496 21.7329 153.496 20.6803V6.89288C153.496 6.57333 153.59 6.31018 153.778 6.10341C153.985 5.89665 154.249 5.79327 154.569 5.79327C154.889 5.79327 155.152 5.89665 155.359 6.10341C155.566 6.31018 155.67 6.57333 155.67 6.89288V20.6803C155.67 21.6389 155.952 22.4284 156.517 23.0487C157.081 23.6502 157.806 23.9509 158.691 23.9509H159.453C159.754 23.9509 159.999 24.0543 160.187 24.2611C160.375 24.4678 160.47 24.731 160.47 25.0505C160.47 25.3701 160.357 25.6332 160.131 25.84C159.905 26.028 159.623 26.122 159.284 26.122H158.691ZM151.66 13.1522C151.378 13.1522 151.143 13.0676 150.955 12.8984C150.766 12.7105 150.672 12.4849 150.672 12.2218C150.672 11.9398 150.766 11.7142 150.955 11.5451C151.143 11.3571 151.378 11.2631 151.66 11.2631H158.86C159.143 11.2631 159.378 11.3571 159.566 11.5451C159.754 11.7142 159.848 11.9398 159.848 12.2218C159.848 12.4849 159.754 12.7105 159.566 12.8984C159.378 13.0676 159.143 13.1522 158.86 13.1522H151.66Z" fill="white"/>
<path d="M163.5 16.6202C163.557 15.4548 163.858 14.4116 164.404 13.4905C164.969 12.5695 165.693 11.8458 166.578 11.3195C167.481 10.7932 168.479 10.53 169.571 10.53C170.437 10.53 171.105 10.6522 171.575 10.8966C172.046 11.1409 172.225 11.4981 172.112 11.968C172.036 12.2499 171.905 12.4379 171.716 12.5319C171.547 12.6259 171.331 12.6635 171.067 12.6447C170.822 12.6259 170.54 12.6071 170.22 12.5883C169.166 12.4943 168.225 12.6071 167.397 12.9266C166.587 13.2274 165.938 13.6973 165.448 14.3364C164.978 14.9755 164.743 15.7367 164.743 16.6202H163.5ZM163.67 26.122C163.331 26.122 163.067 26.028 162.879 25.84C162.691 25.652 162.597 25.3889 162.597 25.0505V11.7706C162.597 11.4323 162.691 11.1691 162.879 10.9812C163.067 10.7932 163.331 10.6992 163.67 10.6992C164.009 10.6992 164.272 10.7932 164.46 10.9812C164.649 11.1691 164.743 11.4323 164.743 11.7706V25.0505C164.743 25.3889 164.649 25.652 164.46 25.84C164.272 26.028 164.009 26.122 163.67 26.122Z" fill="white"/>
<path d="M179.988 26.2629C178.464 26.2629 177.108 25.934 175.922 25.2761C174.755 24.5994 173.833 23.669 173.156 22.4848C172.497 21.3006 172.167 19.9472 172.167 18.4247C172.167 16.8833 172.478 15.53 173.099 14.3646C173.739 13.1804 174.614 12.2499 175.725 11.5733C176.835 10.8966 178.115 10.5582 179.565 10.5582C180.995 10.5582 182.238 10.8872 183.292 11.5451C184.365 12.1842 185.193 13.077 185.776 14.2236C186.36 15.3702 186.651 16.6766 186.651 18.1427C186.651 18.4435 186.557 18.6878 186.369 18.8758C186.181 19.045 185.936 19.1296 185.635 19.1296H173.636V17.3251H185.861L184.647 18.1991C184.666 17.1089 184.468 16.1315 184.054 15.2668C183.64 14.4022 183.047 13.7255 182.275 13.2368C181.522 12.7481 180.619 12.5037 179.565 12.5037C178.492 12.5037 177.551 12.7575 176.741 13.265C175.932 13.7725 175.301 14.4774 174.85 15.3796C174.417 16.2631 174.2 17.2781 174.2 18.4247C174.2 19.5713 174.445 20.5863 174.934 21.4698C175.443 22.3532 176.13 23.0487 176.995 23.5562C177.861 24.0637 178.859 24.3175 179.988 24.3175C180.666 24.3175 181.343 24.2047 182.021 23.9791C182.718 23.7348 183.273 23.434 183.687 23.0769C183.894 22.9077 184.129 22.8231 184.393 22.8231C184.656 22.8043 184.882 22.8701 185.07 23.0205C185.315 23.246 185.437 23.4904 185.437 23.7536C185.456 24.0167 185.353 24.2423 185.127 24.4302C184.506 24.9566 183.715 25.3983 182.755 25.7554C181.795 26.0938 180.873 26.2629 179.988 26.2629Z" fill="white"/>
<path d="M195.17 26.2629C193.721 26.2629 192.422 25.9246 191.274 25.2479C190.126 24.5524 189.213 23.6126 188.535 22.4284C187.877 21.2442 187.547 19.9096 187.547 18.4247C187.547 16.9209 187.886 15.577 188.564 14.3928C189.26 13.2086 190.201 12.2781 191.387 11.6015C192.573 10.906 193.909 10.5582 195.396 10.5582C196.883 10.5582 198.21 10.906 199.377 11.6015C200.563 12.2781 201.495 13.2086 202.173 14.3928C202.869 15.577 203.227 16.9209 203.245 18.4247L202.37 19.1014C202.37 20.4547 202.05 21.6765 201.41 22.7667C200.789 23.8381 199.933 24.6934 198.841 25.3325C197.768 25.9528 196.545 26.2629 195.17 26.2629ZM195.396 24.2893C196.488 24.2893 197.457 24.0355 198.304 23.528C199.17 23.0205 199.848 22.325 200.337 21.4416C200.846 20.5393 201.1 19.5337 201.1 18.4247C201.1 17.2969 200.846 16.2913 200.337 15.4078C199.848 14.5244 199.17 13.8289 198.304 13.3214C197.457 12.7951 196.488 12.5319 195.396 12.5319C194.323 12.5319 193.354 12.7951 192.488 13.3214C191.622 13.8289 190.935 14.5244 190.427 15.4078C189.919 16.2913 189.665 17.2969 189.665 18.4247C189.665 19.5337 189.919 20.5393 190.427 21.4416C190.935 22.325 191.622 23.0205 192.488 23.528C193.354 24.0355 194.323 24.2893 195.396 24.2893ZM202.144 26.122C201.824 26.122 201.561 26.028 201.354 25.84C201.147 25.6332 201.043 25.3701 201.043 25.0505V20.2292L201.58 18.0018L203.245 18.4247V25.0505C203.245 25.3701 203.142 25.6332 202.935 25.84C202.728 26.028 202.464 26.122 202.144 26.122Z" fill="white"/>
<path d="M226.927 26.122C226.607 26.122 226.344 26.028 226.137 25.84C225.929 25.6332 225.826 25.3701 225.826 25.0505V16.9303C225.826 15.5958 225.478 14.5432 224.781 13.7725C224.085 12.983 223.191 12.5883 222.099 12.5883C220.932 12.5883 219.972 12.983 219.219 13.7725C218.485 14.5432 218.127 15.577 218.146 16.874H216.198C216.217 15.6146 216.49 14.5056 217.017 13.5469C217.544 12.5883 218.269 11.8458 219.191 11.3195C220.113 10.7932 221.158 10.53 222.325 10.53C223.435 10.53 224.414 10.7932 225.261 11.3195C226.127 11.8458 226.795 12.5883 227.266 13.5469C227.755 14.5056 228 15.6334 228 16.9303V25.0505C228 25.3701 227.896 25.6332 227.689 25.84C227.501 26.028 227.247 26.122 226.927 26.122ZM207.163 26.122C206.824 26.122 206.551 26.028 206.344 25.84C206.156 25.6332 206.062 25.3701 206.062 25.0505V11.7988C206.062 11.4793 206.156 11.2161 206.344 11.0094C206.551 10.8026 206.824 10.6992 207.163 10.6992C207.483 10.6992 207.737 10.8026 207.925 11.0094C208.133 11.2161 208.236 11.4793 208.236 11.7988V25.0505C208.236 25.3701 208.133 25.6332 207.925 25.84C207.737 26.028 207.483 26.122 207.163 26.122ZM217.073 26.122C216.753 26.122 216.49 26.028 216.283 25.84C216.076 25.6332 215.972 25.3701 215.972 25.0505V16.9303C215.972 15.5958 215.624 14.5432 214.928 13.7725C214.231 12.983 213.337 12.5883 212.245 12.5883C211.078 12.5883 210.118 12.9736 209.365 13.7443C208.613 14.4962 208.236 15.483 208.236 16.7048H206.683C206.721 15.5018 206.984 14.4398 207.474 13.5187C207.982 12.5789 208.669 11.8458 209.535 11.3195C210.401 10.7932 211.379 10.53 212.471 10.53C213.582 10.53 214.561 10.7932 215.408 11.3195C216.273 11.8458 216.942 12.5883 217.412 13.5469C217.902 14.5056 218.146 15.6334 218.146 16.9303V25.0505C218.146 25.3701 218.043 25.6332 217.836 25.84C217.647 26.028 217.393 26.122 217.073 26.122Z" fill="white"/>
<defs>
<linearGradient id="paint0_linear_419_34427" x1="0" y1="16.9782" x2="64.323" y2="16.9782" gradientUnits="userSpaceOnUse">
<stop stop-color="#0E2849"/>
<stop offset="1" stop-color="#18E5EA"/>
</linearGradient>
</defs>
</svg>
